<?xml version="1.0" encoding="utf-8"?>
<!-- Generator: Adobe Illustrator 19.2.1, SVG Export Plug-In . SVG Version: 6.00 Build 0)  -->
<svg version="1.1" id="layer" xmlns="http://www.w3.org/2000/svg" xmlns:xlink="http://www.w3.org/1999/xlink" x="0px" y="0px"
	 viewBox="0 0 652 652" style="enable-background:new 0 0 652 652;" xml:space="preserve">
<style type="text/css">
	.st0{fill:#4B565D;}
	.st1{fill:#D10037;}
</style>
<path class="st0" d="M165.8,283.7v15h-22.4v15.5h21.4v15h-21.4v30.5h-18.1v-76.1H165.8z M172.4,321.8c0-28.2,15.5-39.4,30.4-39.4
	c14.9,0,30.4,11.1,30.4,39.4c0,28.2-15.5,39.4-30.4,39.4C187.9,361.1,172.4,350,172.4,321.8 M191.1,321.8c0,15.1,3.7,24.8,11.5,24.8
	h0.1c7.8,0,11.5-9.7,11.5-24.8c0-14.8-3.7-24.8-11.5-24.8C194.9,297,191.1,306.9,191.1,321.8 M264.3,315.4c3.9,0,7.6-3.3,7.6-8.2
	c0-5.2-2.5-8.9-7.9-8.9h-5.1v17.1H264.3z M268.4,338.2c-1.8-7.3-4.8-8.2-7.8-8.2h-1v29.8h-18.5v-76.1h27.4
	c13.8,0,21.7,6.4,21.7,20.5c0,11.2-7.2,15.8-13.2,17.4v0.3c3.9,1.4,6.5,3.5,9.2,14.1l6.2,23.8h-19L268.4,338.2z M300.3,358.2
	c3.4,1,10,2.9,18.3,2.9c16,0,26.8-8.5,26.8-25.2c0-11.3-5.4-16.1-11.6-19.3l-8.2-4.1c-6.1-3.1-7.9-4.8-7.9-8.7
	c0-4.7,3.3-7.2,8.8-7.2c5.3,0,10.9,2,14.1,3.8l0.8-14.9c-5.6-2.5-12.1-3.1-17.3-3.1c-14.5,0-24.9,8.2-24.9,22.6
	c0,10.8,3.4,17.6,14.7,22.5l4,1.7c5.3,2.3,8.3,3.7,8.3,8.7c0,4.8-2.5,8.2-9.4,8.2c-6.6,0-13.3-3.2-15.5-4.6L300.3,358.2z
	 M363.2,359.8h18.5v-60.6h14.7v-15.5h-47.9v15.5h14.7V359.8z M436.8,359.8h18.5v-76.1h-18.5v29.2h-14.3v-29.2H404v76.1h18.5v-31
	h14.3V359.8z M463.7,321.8c0-28.2,15.5-39.4,30.4-39.4c14.9,0,30.4,11.1,30.4,39.4c0,28.2-15.5,39.4-30.4,39.4
	C479.2,361.1,463.7,350,463.7,321.8 M482.4,321.8c0,15.1,3.7,24.8,11.5,24.8h0.1c7.8,0,11.5-9.7,11.5-24.8
	c0-14.8-3.7-24.8-11.5-24.8C486.1,297,482.4,306.9,482.4,321.8 M532.9,359.8H551v-30.5h21.4v-15H551v-15.5h22.4v-15h-40.4V359.8z
	 M581.2,359.8h18.1v-30.5h21.4v-15h-21.4v-15.5h22.4v-15h-40.4V359.8z"/>
<path class="st1" d="M48.7,321.8c0-6,4.9-10.9,10.9-10.9c6,0,10.9,4.9,10.9,10.9c0,6-4.9,10.9-10.9,10.9
	C53.6,332.7,48.7,327.8,48.7,321.8 M28,283.7c-3.5,0-6.3,2.8-6.3,6.3v63.4c0,3.5,2.8,6.3,6.3,6.3h12.3v-57.5h23.3v-18.6H28z
	 M55.8,359.8h35.6c3.5,0,6.3-2.8,6.3-6.3v-63.4c0-3.5-2.8-6.3-6.3-6.3H79.1v57.5H55.8V359.8z"/>
</svg>
