<?xml version="1.0" encoding="UTF-8"?>
<svg width="141px" height="34px" viewBox="0 0 141 34" version="1.1" xmlns="http://www.w3.org/2000/svg" xmlns:xlink="http://www.w3.org/1999/xlink">
    <!-- Generator: sketchtool 55.2 (78181) - https://sketchapp.com -->
    <title>7F19ED40-4F63-4537-9B5D-B05CC396CCBA</title>
    <desc>Created with sketchtool.</desc>
    <g id="Start-Page" stroke="none" stroke-width="1" fill="none" fill-rule="evenodd">
        <g id="Start-Page-(1440)-–-Initial" transform="translate(-32.000000, -58.000000)">
            <g id="frame/header/desktop-wide/leister-technologies">
                <g id="Leister-Logo" transform="translate(32.000000, 58.000000)">
                    <polygon id="Fill-1" fill="#C62534" points="0 34 141 34 141 0 0 0"></polygon>
                    <polygon id="Fill-2" fill="#FFFFFE" points="4.14705882 29.8536585 136.852941 29.8536585 136.852941 4.14634146 4.14705882 4.14634146"></polygon>
                    <polygon id="Fill-3" fill="#020000" points="6.63529412 27.3658537 134.364706 27.3658537 134.364706 6.63414634 6.63529412 6.63414634"></polygon>
                    <polyline id="Fill-4" fill="#C62534" points="10.7823529 9.95121951 15.2092814 9.95121951 15.2092814 20.4357002 21.5647059 20.4357002 21.5647059 24.0487805 10.7823529 24.0487805 10.7823529 9.95121951"></polyline>
                    <polyline id="Fill-5" fill="#C62534" points="28.2 9.95121951 39.6035872 9.95121951 39.6035872 13.5651286 32.4429315 13.5651286 32.4429315 15.3198638 38.9450337 15.3198638 38.9450337 18.6809651 32.4429315 18.6809651 32.4429315 20.4357002 39.8117647 20.4357002 39.8117647 24.0487805 28.2 24.0487805 28.2 9.95121951"></polyline>
                    <polygon id="Fill-6" fill="#C62534" points="48.1058824 24.0487805 52.2529412 24.0487805 52.2529412 9.95121951 48.1058824 9.95121951"></polygon>
                    <path d="M64.7976387,19.2047962 C64.7976387,19.5418653 64.8543996,19.8449111 64.9525148,20.0894049 C65.2598345,20.8988456 66.1882805,21.0689626 66.982933,21.0689626 C67.6737942,21.0689626 68.7376554,20.8434586 68.7376554,19.8449111 C68.7376554,19.1462443 68.1424769,18.9579286 65.7666282,18.2996152 C63.5813339,17.6935237 61.0919634,17.112752 61.0919634,14.3987915 C61.0919634,11.2900012 63.8124318,9.95121951 66.6504764,9.95121951 C69.6466405,9.95121951 72.2916981,11.060541 72.4060307,14.3402396 L68.3897923,14.3402396 C68.4684466,13.8330534 68.2373487,13.4936105 67.8886747,13.2681065 C67.5408115,13.0204477 67.0591548,12.9278724 66.6318263,12.9278724 C66.0520544,12.9278724 65.1082019,13.0758347 65.1082019,13.8330534 C65.1836127,14.7944125 67.1540265,15.001718 69.1049795,15.5271028 C71.0559324,16.0556525 72.9882353,16.942635 72.9882353,19.4121016 C72.9882353,22.9173043 69.6847514,24.0487805 66.6123655,24.0487805 C65.0506301,24.0487805 60.5851697,23.4980759 60.5470588,19.2047962 L64.7976387,19.2047962" id="Fill-7" fill="#C62534"></path>
                    <polyline id="Fill-8" fill="#C62534" points="82.8097378 13.5651286 78.7941176 13.5651286 78.7941176 9.95121951 91.2352941 9.95121951 91.2352941 13.5651286 87.2230446 13.5651286 87.2230446 24.0487805 82.8097378 24.0487805 82.8097378 13.5651286"></polyline>
                    <polyline id="Fill-9" fill="#C62534" points="97.8705882 9.95121951 109.274234 9.95121951 109.274234 13.5651286 102.115576 13.5651286 102.115576 15.3198638 108.615864 15.3198638 108.615864 18.6809651 102.115576 18.6809651 102.115576 20.4357002 109.482353 20.4357002 109.482353 24.0487805 97.8705882 24.0487805 97.8705882 9.95121951"></polyline>
                    <path d="M121.281848,16.1131003 L123.542254,16.1131003 C124.350015,16.1131003 125.454588,15.9738487 125.454588,14.7114672 C125.454588,13.8237386 124.963483,13.3123208 123.303316,13.3123208 L121.281848,13.3123208 L121.281848,16.1131003 Z M116.947059,9.95121951 L125.199115,9.95121951 C127.659601,9.95121951 129.78855,11.3147242 129.78855,13.9795677 C129.78855,15.4425378 129.116381,16.9842513 127.679444,17.5147334 C128.861734,17.9681298 129.58847,19.273613 129.749691,21.0283482 C129.807566,21.7212904 129.827409,23.398111 130.217647,24.0487805 L125.886992,24.0487805 C125.667069,23.3400896 125.59018,22.6081901 125.531478,21.8796062 C125.412423,20.5359945 125.295847,19.1343614 123.581113,19.1343614 L121.281848,19.1343614 L121.281848,24.0487805 L116.947059,24.0487805 L116.947059,9.95121951 Z" id="Fill-10" fill="#C62534" fill-rule="nonzero"></path>
                </g>
            </g>
        </g>
    </g>
</svg>