<?xml version="1.0" encoding="utf-8"?>
<!-- Generator: Adobe Illustrator 23.0.1, SVG Export Plug-In . SVG Version: 6.00 Build 0)  -->
<svg version="1.1" xmlns="http://www.w3.org/2000/svg" xmlns:xlink="http://www.w3.org/1999/xlink" x="0px" y="0px"
	 viewBox="0 0 352.06 86.67" style="enable-background:new 0 0 352.06 86.67;" xml:space="preserve">
<style type="text/css">
	.st0{display:none;}
	.st1{display:inline;}
	.st2{fill:#C0E4F9;stroke:#C0E4F9;stroke-width:0.25;}
	.st3{fill:#AE151B;stroke:#C0E4F9;stroke-width:0.25;}
	.st4{fill:none;stroke:#C0E4F9;stroke-width:0.25;}
	.st5{fill:#C0E4F9;}
	.st6{fill:#D8282F;}
	.st7{fill:#F5B325;}
</style>
<g id="_auxiliary_line" class="st0">
	<g class="st1">
		<line class="st2" x1="90.96" y1="-28.7" x2="90.96" y2="115.29"/>
		<line class="st3" x1="352.06" y1="-28.7" x2="352.06" y2="115.22"/>
		<line class="st4" x1="380.78" y1="0.03" x2="62.23" y2="0.03"/>
		<line class="st2" x1="380.88" y1="86.47" x2="62.42" y2="86.47"/>
		<rect x="352.06" y="86.47" class="st5" width="28.82" height="28.82"/>
		<rect x="352.06" y="-28.78" class="st5" width="28.82" height="28.82"/>
		<rect x="62.14" y="-28.78" class="st5" width="28.82" height="28.82"/>
		<rect x="62.14" y="86.47" class="st5" width="28.82" height="28.82"/>
	</g>
</g>
<g id="Sika_x5F_Claim_x5F_pos_x5F_rgb">
	<g>
		<path class="st6" d="M10.56,79.48c0-1.16-0.72-1.75-1.97-1.75H5.03v4.85h2.91c1.47,0,2.62-0.31,2.62-1.81V79.48z M9.82,70.79
			c0-0.91-0.57-1.47-1.88-1.47H5.03v4.75h2.91c1.24,0,1.88-0.62,1.88-1.47V70.79z M9.22,86.36H0.34V65.54h8.22
			c4.35,0,5.94,1.75,5.94,4.56v2.12c0,1.51-0.66,2.57-2.32,3.29c1.72,0.4,3.06,1.91,3.06,3.85v2.03
			C15.25,84.33,13.38,86.36,9.22,86.36"/>
		<path class="st6" d="M33.76,65.54v14.76c0,3.16-1.97,6.38-7.84,6.38c-5.88,0-7.85-3.22-7.85-6.38V65.54h4.7v14.32
			c0,1.68,0.81,2.65,3.16,2.65c2.34,0,3.15-0.96,3.15-2.65V65.54H33.76z"/>
		<rect x="37.83" y="65.54" class="st6" width="4.69" height="20.82"/>
		<polygon class="st6" points="46.74,86.36 46.74,65.54 51.43,65.54 51.43,82.21 59.68,82.21 59.68,86.36 		"/>
		<path class="st6" d="M72.75,72.23c0-1.62-0.56-2.53-2.9-2.53h-2.81v12.51h2.81c2.34,0,2.9-0.91,2.9-2.54V72.23z M70.41,86.36
			h-8.07V65.54h8.07c5.13,0,7.03,2.6,7.03,5.41v10.01C77.44,83.74,75.53,86.36,70.41,86.36"/>
		<rect x="81.19" y="65.54" class="st6" width="4.69" height="20.82"/>
		<polygon class="st6" points="94.57,72.67 94.57,86.36 90.1,86.36 90.1,65.54 95.85,65.54 102.7,79.89 102.7,65.54 107.18,65.54 
			107.18,86.36 101.39,86.36 		"/>
		<path class="st6" d="M118.39,86.67c-5.06,0-7.63-2.6-7.63-6.38V71.6c0-3.85,2.56-6.38,7.63-6.38c2.42,0,4.88,0.31,6.66,0.66
			l-0.57,4.09c-1.81-0.28-4.6-0.5-6.1-0.5c-2.34,0-2.93,1.22-2.93,2.85v7.16c0,1.63,0.6,2.97,2.93,2.97c0.94,0,1.57-0.03,2.78-0.18
			v-6.38h4.41v9.79C123.31,86.33,120.81,86.67,118.39,86.67"/>
		<polygon class="st6" points="144.69,69.69 144.69,86.36 140,86.36 140,69.69 134.41,69.69 134.41,65.54 150.28,65.54 
			150.28,69.69 		"/>
		<path class="st6" d="M163.61,71.89c0-1.57-0.59-2.2-2.5-2.2h-3.71v6.13h3.71c2,0,2.5-0.72,2.5-2.28V71.89z M160.13,79.89h-2.75
			v6.47h-4.69V65.54h8.66c5.07,0,6.94,2,6.94,5.91v2.57c0,2.59-0.93,4.34-3.03,5.23l5.03,7.12h-5.57L160.13,79.89z"/>
		<path class="st6" d="M188.34,65.54v14.76c0,3.16-1.97,6.38-7.84,6.38c-5.88,0-7.86-3.22-7.86-6.38V65.54h4.69v14.32
			c0,1.68,0.81,2.65,3.16,2.65c2.34,0,3.15-0.96,3.15-2.65V65.54H188.34z"/>
		<path class="st6" d="M198.34,86.67c-2.41,0-4.94-0.53-6.72-1.34l0.78-3.63c1.91,0.6,3.85,1,6,1c2.4,0,2.87-0.47,2.87-2.22
			c0-1.88-0.09-2.1-3.5-2.84c-5.03-1.1-5.79-2.09-5.79-6.6c0-4.16,1.47-5.81,7.19-5.81c1.81,0,4,0.19,6.31,0.68l-0.47,3.94
			c-2.38-0.41-3.91-0.59-5.78-0.59c-2.1,0-2.56,0.37-2.56,1.9c0,2,0.09,2.04,3.37,2.81c5.63,1.34,5.91,2.44,5.91,6.54
			C205.97,84.64,204.63,86.67,198.34,86.67"/>
		<polygon class="st6" points="217.88,69.69 217.88,86.36 213.19,86.36 213.19,69.69 207.59,69.69 207.59,65.54 223.48,65.54 
			223.48,69.69 		"/>
	</g>
	<path class="st6" d="M346.01,50.72c0.81,0,1.6,0.21,2.37,0.62c0.77,0.41,1.37,1.01,1.8,1.78c0.43,0.77,0.65,1.58,0.65,2.42
		c0,0.83-0.21,1.63-0.64,2.4c-0.42,0.77-1.02,1.36-1.78,1.79c-0.77,0.43-1.57,0.64-2.4,0.64c-0.84,0-1.64-0.21-2.4-0.64
		c-0.77-0.42-1.36-1.02-1.79-1.79c-0.43-0.77-0.64-1.57-0.64-2.4c0-0.84,0.22-1.65,0.65-2.42c0.43-0.77,1.04-1.37,1.81-1.78
		C344.41,50.93,345.2,50.72,346.01,50.72z M346.01,51.52c-0.68,0-1.34,0.17-1.98,0.52c-0.64,0.35-1.14,0.84-1.51,1.49
		s-0.54,1.32-0.54,2.02c0,0.7,0.18,1.36,0.53,2c0.36,0.64,0.85,1.13,1.49,1.49c0.64,0.36,1.31,0.53,2,0.53c0.69,0,1.36-0.18,2-0.53
		c0.64-0.36,1.14-0.85,1.49-1.49c0.35-0.64,0.53-1.3,0.53-2c0-0.7-0.18-1.37-0.54-2.02c-0.36-0.65-0.86-1.14-1.51-1.49
		C347.34,51.7,346.68,51.52,346.01,51.52z M343.89,58.22v-5.19h1.78c0.61,0,1.05,0.05,1.32,0.14c0.27,0.09,0.49,0.26,0.65,0.5
		c0.16,0.24,0.24,0.49,0.24,0.76c0,0.38-0.14,0.71-0.41,0.99c-0.27,0.28-0.63,0.44-1.08,0.47c0.18,0.08,0.33,0.17,0.44,0.28
		c0.21,0.2,0.47,0.55,0.77,1.03l0.63,1.02h-1.02l-0.46-0.82c-0.36-0.64-0.66-1.05-0.88-1.21c-0.15-0.12-0.38-0.18-0.67-0.18h-0.49
		v2.21H343.89z M344.73,55.3h1.02c0.49,0,0.82-0.07,0.99-0.22c0.18-0.15,0.27-0.34,0.27-0.58c0-0.15-0.04-0.29-0.13-0.41
		c-0.09-0.12-0.2-0.21-0.35-0.27c-0.15-0.06-0.43-0.09-0.84-0.09h-0.95V55.3z"/>
	<polygon class="st6" points="302.18,0 352.06,86.46 252.3,86.46 	"/>
	<path class="st7" d="M294.75,60.03h-3.39c-0.47,0-0.93,0.38-1.01,0.86l-2.85,15.59c-0.09,0.47,0.23,0.86,0.7,0.86h3.39
		c0.47,0,0.93-0.38,1.01-0.86l2.84-15.59C295.54,60.41,295.22,60.03,294.75,60.03"/>
	<path class="st7" d="M296.78,53.59l0.53-2.96c0.09-0.47-0.23-0.85-0.7-0.85l-3.39,0c-0.47,0-0.93,0.38-1.01,0.85l-0.54,2.96
		c-0.08,0.47,0.23,0.86,0.7,0.86h3.39C296.24,54.45,296.7,54.06,296.78,53.59"/>
	<path class="st7" d="M323.64,74.09c-2.52,0.12-3.91-1.09-3.91-2.28c0-1.63,2.5-2.15,4.52-2.07c2.02,0.07,3.42,0.51,3.37,2.1
		C327.59,73.03,325.78,73.99,323.64,74.09z M333.43,76.52c0.23-0.58,0.4-2.16,0.4-2.16c0.04-0.23,0.09-0.85-0.48-1.02
		c-0.57-0.17-1.92,0.03-1.92-0.85c0-0.31,1.06-5.53,1.17-7.2c0.11-1.67,0.01-3.88-2.73-4.96c-1-0.39-9.91-0.29-9.91-0.29
		c-0.53-0.01-1.01,0.33-1.07,0.75l-0.41,1.88c-0.06,0.42,0.32,0.77,0.84,0.78c0,0,3.81,0,6.15,0c2.19,0,2.99,0.42,3.03,0.8
		c0.04,0.38,0.1,2.52-0.82,2.48c-0.82-0.03-11.89-2.21-11.89,5.09c0,1.27-2.15,1.74-2.71,0.88c-0.56-0.86-3.45-3.74-3.47-4.25
		c-0.03-0.51,4.77-2.99,5.79-7.06c0.1-0.38,0.16-1.36-0.59-1.36c-0.54,0-2.52,0-2.93,0c-0.39,0-0.91,0.09-1.36,1.03
		c-1.98,4.57-7.15,5.62-6.78,3.92c0.12-0.55,6.01-33.12,6.01-33.12c0.09-0.47-0.23-0.86-0.71-0.86h-3.39
		c-0.47,0-0.93,0.38-1.01,0.86l-8.13,44.63c-0.08,0.47,0.23,0.86,0.7,0.86h3.39c0.47,0,0.93-0.38,1.01-0.86l0.95-5.04l0,0
		c0.28-0.72,0.7-1.04,1.63-1.04c3.35,0,5.06,7.18,8.48,7.24c2.06,0.03,4.51-1.53,4.98-1.54c0.99-0.03,1.54,1.54,4.84,1.54
		c2.93,0,5.05-1.07,5.74-1.07c0.6,0,1.88,0.65,2.51,0.82C332.32,77.8,333.2,77.1,333.43,76.52z"/>
	<path class="st7" d="M270.44,77.69c0.25-0.12,0.41-0.27,0.54-0.32c0.11-0.04,0.32-0.02,0.6,0.03l0.04,0.01
		c2.35,0.66,10.86,2.94,12.95-6.97c0,0,5.78-31.67,5.79-31.75c0.05-0.37,0.71-4.4,6.31-2.51c1.88,0.63,2.05-0.31,2.1-0.47l0.86-3.7
		c0.03-1.05-0.81-0.81-2.43-1.12c-1.24-0.23-1.6,0.43-1.88,0.56c-0.29,0.13-1.27-0.1-2.74-0.18c-0.85-0.04-5.97,0.6-7,5.61
		l-5.63,30.43c-0.25,0.91-0.17,9.51-10.04,4.66c-1.68-0.83-2.32-0.39-2.47,0.48c-0.11,0.62-0.57,3.74-0.65,4.38
		c-0.03,0.26,0.16,0.67,0.65,0.75c0.52,0.08,1.35,0.21,1.75,0.27c0.58,0.09,0.94,0.02,1.21-0.12L270.44,77.69"/>
</g>
<g id="Ebene_3">
</g>
</svg>
